HIERARCHY
ROOT hip
{
  OFFSET 0 0 0
  CHANNELS 6 Xposition Yposition Zposition Zrotation Yrotation Xrotation
  JOINT abdomen
  {
    OFFSET 0 20.6881 -0.73152
    CHANNELS 3 Zrotation Xrotation Yrotation
    JOINT chest
    {
      OFFSET 0 11.7043 -0.48768
      CHANNELS 3 Zrotation Xrotation Yrotation
      JOINT neck
      {
        OFFSET 0 22.1894 -2.19456
        CHANNELS 3 Zrotation Xrotation Yrotation
        JOINT head
        {
          OFFSET -0.24384 7.07133 1.2192
          CHANNELS 3 Zrotation Xrotation Yrotation
          JOINT leftEye
          {
            OFFSET 4.14528 8.04674 8.04672
            CHANNELS 3 Zrotation Xrotation Yrotation
            End Site
            {
              OFFSET 1 0 0
            }
          }
          JOINT rightEye
          {
            OFFSET -3.6576 8.04674 8.04672
            CHANNELS 3 Zrotation Xrotation Yrotation
            End Site
            {
              OFFSET 1 0 0
            }
          }
        }
      }
      JOINT rCollar
      {
        OFFSET -2.68224 19.2634 -4.8768
        CHANNELS 3 Zrotation Xrotation Yrotation
        JOINT rShldr
        {
          OFFSET -8.77824 -1.95073 1.46304
          CHANNELS 3 Zrotation Xrotation Yrotation
          JOINT rForeArm
          {
            OFFSET -28.1742 -1.7115 0.48768
            CHANNELS 3 Zrotation Xrotation Yrotation
            JOINT rHand
            {
              OFFSET -22.5879 0.773209 7.07136
              CHANNELS 3 Zrotation Xrotation Yrotation
              JOINT rThumb1
              {
                OFFSET -1.2192 -0.487915 3.41376
                CHANNELS 3 Zrotation Xrotation Yrotation
                JOINT rThumb2
                {
                  OFFSET -3.37035 -0.52449 3.41376
                  CHANNELS 3 Zrotation Xrotation Yrotation
                  End Site
                  {
                    OFFSET -1.78271 -1.18214 1.43049
                  }
                }
              }
              JOINT rIndex1
              {
                OFFSET -7.75947 0.938293 5.60832
                CHANNELS 3 Zrotation Xrotation Yrotation
                JOINT rIndex2
                {
                  OFFSET -2.54057 -0.884171 1.56538
                  CHANNELS 3 Zrotation Xrotation Yrotation
                  End Site
                  {
                    OFFSET -1.62519 -0.234802 1.16502
                  }
                }
              }
              JOINT rMid1
              {
                OFFSET -8.24714 1.18213 3.41376
                CHANNELS 3 Zrotation Xrotation Yrotation
                JOINT rMid2
                {
                  OFFSET -3.10165 -0.590103 1.0647
                  CHANNELS 3 Zrotation Xrotation Yrotation
                  End Site
                  {
                    OFFSET -2.48547 -0.328903 0.83742
                  }
                }
              }
              JOINT rRing1
              {
                OFFSET -8.82822 0.546677 1.51678
                CHANNELS 3 Zrotation Xrotation Yrotation
                JOINT rRing2
                {
                  OFFSET -2.60934 -0.819778 -0.0198488
                  CHANNELS 3 Zrotation Xrotation Yrotation
                  End Site
                  {
                    OFFSET -2.33842 -0.294052 0.168128
                  }
                }
              }
              JOINT rPinky1
              {
                OFFSET -8.27202 -0.0477905 -0.4584
                CHANNELS 3 Zrotation Xrotation Yrotation
                JOINT rPinky2
                {
                  OFFSET -1.82734 -0.647385 -0.700984
                  CHANNELS 3 Zrotation Xrotation Yrotation
                  End Site
                  {
                    OFFSET -1.69225 -0.51767 -0.607171
                  }
                }
              }
            }
          }
        }
      }
      JOINT lCollar
      {
        OFFSET 2.68224 19.2634 -4.8768
        CHANNELS 3 Zrotation Xrotation Yrotation
        JOINT lShldr
        {
          OFFSET 8.77824 -1.95073 1.46304
          CHANNELS 3 Zrotation Xrotation Yrotation
          JOINT lForeArm
          {
            OFFSET 28.1742 -1.7115 0.48768
            CHANNELS 3 Zrotation Xrotation Yrotation
            JOINT lHand
            {
              OFFSET 22.5879 0.773209 7.07136
              CHANNELS 3 Zrotation Xrotation Yrotation
              JOINT lThumb1
              {
                OFFSET 1.2192 -0.487915 3.41376
                CHANNELS 3 Zrotation Xrotation Yrotation
                JOINT lThumb2
                {
                  OFFSET 3.37035 -0.52449 3.41376
                  CHANNELS 3 Zrotation Xrotation Yrotation
                  End Site
                  {
                    OFFSET 1.78271 -1.18214 1.43049
                  }
                }
              }
              JOINT lIndex1
              {
                OFFSET 7.75947 0.938293 5.60832
                CHANNELS 3 Zrotation Xrotation Yrotation
                JOINT lIndex2
                {
                  OFFSET 2.54057 -0.884171 1.56538
                  CHANNELS 3 Zrotation Xrotation Yrotation
                  End Site
                  {
                    OFFSET 1.62519 -0.234802 1.16502
                  }
                }
              }
              JOINT lMid1
              {
                OFFSET 8.24714 1.18213 3.41376
                CHANNELS 3 Zrotation Xrotation Yrotation
                JOINT lMid2
                {
                  OFFSET 3.10165 -0.590103 1.0647
                  CHANNELS 3 Zrotation Xrotation Yrotation
                  End Site
                  {
                    OFFSET 2.48547 -0.328903 0.83742
                  }
                }
              }
              JOINT lRing1
              {
                OFFSET 8.82822 0.546677 1.51678
                CHANNELS 3 Zrotation Xrotation Yrotation
                JOINT lRing2
                {
                  OFFSET 2.60934 -0.819778 -0.0198488
                  CHANNELS 3 Zrotation Xrotation Yrotation
                  End Site
                  {
                    OFFSET 2.33842 -0.294052 0.168128
                  }
                }
              }
              JOINT lPinky1
              {
                OFFSET 8.27202 -0.0477905 -0.4584
                CHANNELS 3 Zrotation Xrotation Yrotation
                JOINT lPinky2
                {
                  OFFSET 1.82734 -0.647385 -0.700984
                  CHANNELS 3 Zrotation Xrotation Yrotation
                  End Site
                  {
                    OFFSET 1.69225 -0.51767 -0.607171
                  }
                }
              }
            }
          }
        }
      }
    }
  }
  JOINT rButtock
  {
    OFFSET -8.77824 4.35084 1.2192
    CHANNELS 3 Zrotation Xrotation Yrotation
    JOINT rThigh
    {
      OFFSET 0 -1.70687 -2.19456
      CHANNELS 3 Zrotation Xrotation Yrotation
      JOINT rShin
      {
        OFFSET 0 -36.8199 0.73152
        CHANNELS 3 Zrotation Xrotation Yrotation
        JOINT rFoot
        {
          OFFSET 0.73152 -45.1104 -5.12064
          CHANNELS 3 Zrotation Xrotation Yrotation
          End Site
          {
            OFFSET -1.1221 -3.69964 12.103
          }
        }
      }
    }
  }
  JOINT lButtock
  {
    OFFSET 8.77824 4.35084 1.2192
    CHANNELS 3 Zrotation Xrotation Yrotation
    JOINT lThigh
    {
      OFFSET 0 -1.70687 -2.19456
      CHANNELS 3 Zrotation Xrotation Yrotation
      JOINT lShin
      {
        OFFSET 0 -36.8199 0.73152
        CHANNELS 3 Zrotation Xrotation Yrotation
        JOINT lFoot
        {
          OFFSET -0.73152 -45.1104 -5.12064
          CHANNELS 3 Zrotation Xrotation Yrotation
          End Site
          {
            OFFSET 1.1221 -3.69964 12.103
          }
        }
      }
    }
  }
}
MOTION
Frames:	4
Frame Time:	0.00833333
-210.703 83.185 95.2678 0.0 0.0 0.0 -3.13122 0.00208551 -0.0845034 -0.863232 0.0181967 -0.149332 2.31998e-14 0.0 7.45442e-16 6.81366e-14 3.18055e-15 2.18353e-15 -0.0 0.0 0.0 -0.0 0.0 0.0 1.16281e-14 3.02836e-17 3.97569e-16 2.39768e-13 5.5287e-16 8.94531e-15 4.10138e-12 -1.22094e-12 1.17681e-13 4.70566e-11 1.32075e-12 1.55529e-12 1.1098e-10 2.14434e-13 3.64173e-12 1.91644e-10 3.65764e-13 6.27364e-12 1.10986e-10 2.15085e-13 3.62901e-12 7.73091 5.47488 0.417314 1.10979e-10 2.14787e-13 3.63537e-12 2.90554 0.965183 0.102902 1.10988e-10 2.14787e-13 3.63696e-12 10.2786 0.731801 0.0259123 1.10978e-10 2.15085e-13 3.63855e-12 2.22167 -0.733487 -0.20892 1.1531e-14 3.12542e-17 1.98785e-16 2.37055e-13 2.54693e-16 7.55382e-15 4.11792e-12 1.24717e-12 1.17681e-13 4.70614e-11 -1.1486e-12 1.59028e-12 1.11028e-10 2.17334e-13 3.65446e-12 1.91748e-10 3.81667e-13 6.30704e-12 1.11021e-10 2.19458e-13 3.66082e-12 -7.73091 5.47488 -0.417314 1.11028e-10 2.17172e-13 3.64492e-12 -2.90554 0.965183 -0.102902 1.11022e-10 2.17272e-13 3.65207e-12 -10.2786 0.731801 -0.0259123 1.11029e-10 2.19061e-13 3.64492e-12 -2.22167 -0.733487 0.20892 -2.03217e-16 0.0 -3.88251e-19 -1.91857 -1.93503 0.014621 -0.00850223 -2.07867 -0.0697753 -0.45889 4.00011 0.132492 2.03217e-16 0.0 3.88251e-19 -2.838 -9.32629 0.322338 -0.00902632 11.3079 -0.235093 0.527116 -1.99512 -0.0183379
-204.617 81.5049 87.569 139.057 83.4292 140.628 -4.57044 1.45916 1.07015 -0.434027 1.54175 0.124289 -7.61909 4.31736 -5.22769 21.3284 -11.7821 -2.31461 -0.0 0.0 0.0 -0.0 0.0 0.0 2.21912e-14 -8.59365e-16 -3.59983e-14 22.7611 16.246 -0.683105 -24.7392 -22.5614 14.4966 0.0276892 -3.69632 -0.515601 1.71606e-10 7.71756e-11 -3.57898e-11 2.97687e-10 1.33637e-10 -6.11204e-11 1.71612e-10 7.71805e-11 -3.57989e-11 7.73091 5.47488 0.417314 1.71605e-10 7.71755e-11 -3.57946e-11 2.90554 0.965183 0.102902 1.71613e-10 7.71757e-11 -3.57938e-11 10.2786 0.731801 0.0259123 1.71603e-10 7.7177e-11 -3.57895e-11 2.22167 -0.733487 -0.20892 2.20748e-14 -8.57383e-16 -3.61835e-14 -25.2221 14.6712 0.897105 23.3827 -21.2535 -14.815 -0.21442 -10.32 1.36733 1.9421e-10 -5.97551e-11 1.4802e-10 3.312e-10 -1.03389e-10 2.57903e-10 1.94204e-10 -5.97534e-11 1.48028e-10 -7.73091 5.47488 -0.417314 1.9421e-10 -5.97543e-11 1.48014e-10 -2.90554 0.965183 -0.102902 1.94202e-10 -5.97542e-11 1.48018e-10 -10.2786 0.731801 -0.0259123 1.94213e-10 -5.97528e-11 1.48012e-10 -2.22167 -0.733487 0.20892 -2.03217e-16 0.0 -3.88251e-19 -4.57279 -5.05055 0.356019 0.0513258 9.80788 0.152835 -1.33684 -3.4432 -4.74994 2.03217e-16 0.0 3.88251e-19 -3.33134 -10.9705 1.85192 0.0118263 19.8341 -0.354142 0.946609 -8.19642 2.09895
-204.414 81.4645 87.5555 138.889 83.9158 140.473 -6.17042 2.97576 2.27621 0.010418 3.15973 0.408803 -14.804 8.79512 -10.8548 42.7644 -24.2004 -5.11033 -0.0 0.0 0.0 -0.0 0.0 0.0 3.34384e-14 -1.04122e-14 -7.69949e-14 47.3151 33.43 -1.61523 -35.5865 -41.0735 37.7586 -0.0159144 -7.58335 -1.06512 2.4206e-10 1.8094e-10 -5.73641e-11 4.20611e-10 3.13395e-10 -9.75424e-11 2.42067e-10 1.8095e-10 -5.73691e-11 7.73091 5.47488 0.417314 2.42059e-10 1.8094e-10 -5.73673e-11 2.90554 0.965183 0.102902 2.42067e-10 1.8094e-10 -5.73673e-11 10.2786 0.731801 0.0259123 2.42056e-10 1.80942e-10 -5.73601e-11 2.22167 -0.733487 -0.20892 3.32995e-14 -1.04092e-14 -7.71657e-14 -52.4743 30.1151 2.09587 33.9069 -38.568 -37.4042 0.131139 -21.2803 2.97867 2.71152e-10 -1.16077e-10 2.8831e-10 4.59916e-10 -2.00831e-10 5.02322e-10 2.71146e-10 -1.16075e-10 2.8832e-10 -7.73091 5.47488 -0.417314 2.71153e-10 -1.16075e-10 2.88308e-10 -2.90554 0.965183 -0.102902 2.71142e-10 -1.16074e-10 2.88308e-10 -10.2786 0.731801 -0.0259123 2.71156e-10 -1.16074e-10 2.88304e-10 -2.22167 -0.733487 0.20892 -2.03217e-16 0.0 -3.88251e-19 -7.34659 -8.33817 0.715924 0.00763167 22.3619 0.414679 -3.66059 -11.1636 -10.0908 2.03217e-16 0.0 3.88251e-19 -3.77785 -12.6915 3.44862 0.078446 28.8251 -0.50364 1.90744 -14.7183 4.45265
-204.287 81.3775 87.4775 137.153 84.1749 138.873 -7.62538 4.36644 3.38827 0.380624 4.58854 0.673553 -20.4783 12.5166 -16.0293 60.6004 -35.089 -8.31691 -0.0 0.0 0.0 -0.0 0.0 0.0 4.33173e-14 -2.63866e-15 -1.0879e-13 69.9513 48.7028 -2.98195 -31.1131 -45.8351 67.5845 -0.119714 -11.0853 -1.57294 2.92857e-10 2.31098e-10 -1.14653e-10 5.09772e-10 4.0018e-10 -1.95909e-10 2.92866e-10 2.31111e-10 -1.14655e-10 7.73091 5.47488 0.417314 2.92856e-10 2.31097e-10 -1.14655e-10 2.90554 0.965183 0.102902 2.92864e-10 2.31098e-10 -1.14655e-10 10.2786 0.731801 0.0259123 2.92852e-10 2.31101e-10 -1.14646e-10 2.22167 -0.733487 -0.20892 4.31623e-14 -2.63466e-15 -1.08948e-13 -77.4981 43.9618 3.6182 30.8629 -43.1831 -64.9884 1.04015 -30.8834 4.70375 3.60574e-10 -1.797e-10 4.3675e-10 6.10103e-10 -3.1093e-10 7.61095e-10 3.60569e-10 -1.79699e-10 4.36762e-10 -7.73091 5.47488 -0.417314 3.60575e-10 -1.79697e-10 4.36751e-10 -2.90554 0.965183 -0.102902 3.60562e-10 -1.79697e-10 4.36749e-10 -10.2786 0.731801 -0.0259123 3.6058e-10 -1.79696e-10 4.36746e-10 -2.22167 -0.733487 0.20892 -2.03217e-16 0.0 -3.88251e-19 -9.76788 -11.28 1.05507 -0.148515 33.5791 0.7097 -7.00135 -17.7615 -15.2307 2.03217e-16 0.0 3.88251e-19 -4.04692 -14.2238 4.97081 0.189245 36.8855 -0.673072 3.23851 -20.4865 6.69429
